<?xml version="1.0" encoding="UTF-8" standalone="no"?>
<!DOCTYPE svg PUBLIC "-//W3C//DTD SVG 1.1//EN"
 "http://www.w3.org/Graphics/SVG/1.1/DTD/svg11.dtd">
<!-- Generated by graphviz version 2.40.1 (20161225.0304)
 -->
<!-- Pages: 1 -->
<svg width="566pt" height="548pt"
 viewBox="0.00 0.00 566.00 548.00" xmlns="http://www.w3.org/2000/svg" xmlns:xlink="http://www.w3.org/1999/xlink">
<g id="graph0" class="graph" transform="scale(1 1) rotate(0) translate(4 544)">
<polygon fill="#ffffff" stroke="transparent" points="-4,4 -4,-544 562,-544 562,4 -4,4"/>
<!-- xhk -->
<g id="node1" class="node">
<title>xhk</title>
<ellipse fill="none" stroke="#000000" cx="383" cy="-450" rx="27" ry="18"/>
<text text-anchor="middle" x="383" y="-445.8" font-family="Times,serif" font-size="14.00" fill="#000000">xhk</text>
</g>
<!-- rhn -->
<g id="node2" class="node">
<title>rhn</title>
<ellipse fill="none" stroke="#000000" cx="313" cy="-378" rx="27" ry="18"/>
<text text-anchor="middle" x="313" y="-373.8" font-family="Times,serif" font-size="14.00" fill="#000000">rhn</text>
</g>
<!-- xhk&#45;&gt;rhn -->
<g id="edge19" class="edge">
<title>xhk&#45;&gt;rhn</title>
<path fill="none" stroke="#000000" d="M368.1548,-434.7307C358.5029,-424.803 345.749,-411.6847 334.9369,-400.5637"/>
<polygon fill="#000000" stroke="#000000" points="337.3041,-397.9775 327.8238,-393.2473 332.2851,-402.8571 337.3041,-397.9775"/>
</g>
<!-- jqt -->
<g id="node6" class="node">
<title>jqt</title>
<ellipse fill="none" stroke="#000000" cx="351" cy="-306" rx="27" ry="18"/>
<text text-anchor="middle" x="351" y="-301.8" font-family="Times,serif" font-size="14.00" fill="#000000">jqt</text>
</g>
<!-- xhk&#45;&gt;jqt -->
<g id="edge18" class="edge">
<title>xhk&#45;&gt;jqt</title>
<path fill="none" stroke="#000000" d="M379.0119,-432.0535C373.5505,-407.4774 363.6891,-363.1008 357.2439,-334.0974"/>
<polygon fill="#000000" stroke="#000000" points="360.6244,-333.1753 355.0384,-324.1727 353.7911,-334.6939 360.6244,-333.1753"/>
</g>
<!-- bvb -->
<g id="node10" class="node">
<title>bvb</title>
<ellipse fill="none" stroke="#000000" cx="406" cy="-90" rx="27" ry="18"/>
<text text-anchor="middle" x="406" y="-85.8" font-family="Times,serif" font-size="14.00" fill="#000000">bvb</text>
</g>
<!-- xhk&#45;&gt;bvb -->
<g id="edge20" class="edge">
<title>xhk&#45;&gt;bvb</title>
<path fill="none" stroke="#000000" d="M387.7656,-431.9623C394.5025,-404.8344 406,-351.8236 406,-306 406,-306 406,-306 406,-234 406,-193.876 406,-147.4631 406,-118.4177"/>
<polygon fill="#000000" stroke="#000000" points="409.5001,-118.1853 406,-108.1854 402.5001,-118.1854 409.5001,-118.1853"/>
</g>
<!-- ntq -->
<g id="node11" class="node">
<title>ntq</title>
<ellipse fill="none" stroke="#000000" cx="501" cy="-18" rx="27" ry="18"/>
<text text-anchor="middle" x="501" y="-13.8" font-family="Times,serif" font-size="14.00" fill="#000000">ntq</text>
</g>
<!-- xhk&#45;&gt;ntq -->
<g id="edge17" class="edge">
<title>xhk&#45;&gt;ntq</title>
<path fill="none" stroke="#000000" d="M405.3163,-439.4533C444.1369,-419.3773 520,-371.7353 520,-306 520,-306 520,-306 520,-162 520,-121.5282 512.532,-75.2037 506.96,-46.2725"/>
<polygon fill="#000000" stroke="#000000" points="510.3177,-45.2111 504.9368,-36.0844 503.4517,-46.5746 510.3177,-45.2111"/>
</g>
<!-- rhn&#45;&gt;jqt -->
<g id="edge21" class="edge">
<title>rhn&#45;&gt;jqt</title>
<path fill="none" stroke="#000000" d="M322.0055,-360.937C326.4828,-352.4537 331.9952,-342.0092 337.007,-332.513"/>
<polygon fill="#000000" stroke="#000000" points="340.2229,-333.9182 341.7952,-323.4407 334.0322,-330.6509 340.2229,-333.9182"/>
</g>
<!-- rhn&#45;&gt;bvb -->
<g id="edge22" class="edge">
<title>rhn&#45;&gt;bvb</title>
<path fill="none" stroke="#000000" d="M311.2636,-359.8034C310.0068,-341.4318 309.3841,-312.3674 315,-288 330.1306,-222.3481 368.2474,-152.22 390.0476,-115.6141"/>
<polygon fill="#000000" stroke="#000000" points="393.2992,-117.0003 395.473,-106.6308 387.3072,-113.3814 393.2992,-117.0003"/>
</g>
<!-- frs -->
<g id="node3" class="node">
<title>frs</title>
<ellipse fill="none" stroke="#000000" cx="114" cy="-234" rx="27" ry="18"/>
<text text-anchor="middle" x="114" y="-229.8" font-family="Times,serif" font-size="14.00" fill="#000000">frs</text>
</g>
<!-- qnr -->
<g id="node9" class="node">
<title>qnr</title>
<ellipse fill="none" stroke="#000000" cx="133" cy="-90" rx="27" ry="18"/>
<text text-anchor="middle" x="133" y="-85.8" font-family="Times,serif" font-size="14.00" fill="#000000">qnr</text>
</g>
<!-- frs&#45;&gt;qnr -->
<g id="edge23" class="edge">
<title>frs&#45;&gt;qnr</title>
<path fill="none" stroke="#000000" d="M116.3679,-216.0535C119.6106,-191.4774 125.4659,-147.1008 129.2927,-118.0974"/>
<polygon fill="#000000" stroke="#000000" points="132.7639,-118.5447 130.6022,-108.1727 125.8241,-117.6289 132.7639,-118.5447"/>
</g>
<!-- pzl -->
<g id="node4" class="node">
<title>pzl</title>
<ellipse fill="none" stroke="#000000" cx="241" cy="-306" rx="27" ry="18"/>
<text text-anchor="middle" x="241" y="-301.8" font-family="Times,serif" font-size="14.00" fill="#000000">pzl</text>
</g>
<!-- nvd -->
<g id="node7" class="node">
<title>nvd</title>
<ellipse fill="none" stroke="#000000" cx="224" cy="-234" rx="27" ry="18"/>
<text text-anchor="middle" x="224" y="-229.8" font-family="Times,serif" font-size="14.00" fill="#000000">nvd</text>
</g>
<!-- pzl&#45;&gt;nvd -->
<g id="edge24" class="edge">
<title>pzl&#45;&gt;nvd</title>
<path fill="none" stroke="#000000" d="M236.7978,-288.2022C234.9179,-280.2406 232.6575,-270.6671 230.5629,-261.7957"/>
<polygon fill="#000000" stroke="#000000" points="233.9172,-260.7706 228.2128,-251.8425 227.1045,-262.3792 233.9172,-260.7706"/>
</g>
<!-- rzs -->
<g id="node5" class="node">
<title>rzs</title>
<ellipse fill="none" stroke="#000000" cx="86" cy="-18" rx="27" ry="18"/>
<text text-anchor="middle" x="86" y="-13.8" font-family="Times,serif" font-size="14.00" fill="#000000">rzs</text>
</g>
<!-- jqt&#45;&gt;nvd -->
<g id="edge25" class="edge">
<title>jqt&#45;&gt;nvd</title>
<path fill="none" stroke="#000000" d="M330.3126,-294.2717C309.4637,-282.4519 277.0893,-264.0979 253.5417,-250.7481"/>
<polygon fill="#000000" stroke="#000000" points="255.104,-247.6104 244.6785,-245.7233 251.6516,-253.6999 255.104,-247.6104"/>
</g>
<!-- jqt&#45;&gt;ntq -->
<g id="edge26" class="edge">
<title>jqt&#45;&gt;ntq</title>
<path fill="none" stroke="#000000" d="M359.934,-288.8468C385.206,-240.3245 457.3207,-101.8643 487.4811,-43.9562"/>
<polygon fill="#000000" stroke="#000000" points="490.5976,-45.5493 492.1128,-35.0633 484.3892,-42.3157 490.5976,-45.5493"/>
</g>
<!-- cmg -->
<g id="node8" class="node">
<title>cmg</title>
<ellipse fill="none" stroke="#000000" cx="208" cy="-162" rx="27.8286" ry="18"/>
<text text-anchor="middle" x="208" y="-157.8" font-family="Times,serif" font-size="14.00" fill="#000000">cmg</text>
</g>
<!-- nvd&#45;&gt;cmg -->
<g id="edge27" class="edge">
<title>nvd&#45;&gt;cmg</title>
<path fill="none" stroke="#000000" d="M219.9625,-215.8314C218.2059,-207.9266 216.1083,-198.4872 214.1637,-189.7365"/>
<polygon fill="#000000" stroke="#000000" points="217.5668,-188.916 211.9808,-179.9134 210.7335,-190.4346 217.5668,-188.916"/>
</g>
<!-- nvd&#45;&gt;qnr -->
<g id="edge28" class="edge">
<title>nvd&#45;&gt;qnr</title>
<path fill="none" stroke="#000000" d="M207.0063,-219.7729C195.668,-209.5986 181.0522,-195.0854 171,-180 158.0652,-160.5886 148.0609,-136.0584 141.5716,-117.5119"/>
<polygon fill="#000000" stroke="#000000" points="144.8411,-116.2538 138.3317,-107.8944 138.2074,-118.4885 144.8411,-116.2538"/>
</g>
<!-- cmg&#45;&gt;rzs -->
<g id="edge31" class="edge">
<title>cmg&#45;&gt;rzs</title>
<path fill="none" stroke="#000000" d="M203.5931,-144.1047C198.0923,-124.6474 187.1323,-93.464 169,-72 155.053,-55.4902 134.7874,-42.1729 117.7729,-32.8941"/>
<polygon fill="#000000" stroke="#000000" points="119.1993,-29.6905 108.7156,-28.1601 115.9567,-35.8942 119.1993,-29.6905"/>
</g>
<!-- cmg&#45;&gt;qnr -->
<g id="edge29" class="edge">
<title>cmg&#45;&gt;qnr</title>
<path fill="none" stroke="#000000" d="M192.46,-147.0816C181.901,-136.945 167.7556,-123.3654 155.9108,-111.9944"/>
<polygon fill="#000000" stroke="#000000" points="158.1579,-109.2998 148.5201,-104.8993 153.3102,-114.3495 158.1579,-109.2998"/>
</g>
<!-- cmg&#45;&gt;bvb -->
<g id="edge30" class="edge">
<title>cmg&#45;&gt;bvb</title>
<path fill="none" stroke="#000000" d="M232.2787,-153.1714C267.5017,-140.363 332.8948,-116.5837 372.6267,-102.1357"/>
<polygon fill="#000000" stroke="#000000" points="373.9394,-105.3827 382.1412,-98.6759 371.5471,-98.8041 373.9394,-105.3827"/>
</g>
<!-- qnr&#45;&gt;rzs -->
<g id="edge32" class="edge">
<title>qnr&#45;&gt;rzs</title>
<path fill="none" stroke="#000000" d="M122.0991,-73.3008C116.2264,-64.3043 108.8634,-53.0247 102.3213,-43.0029"/>
<polygon fill="#000000" stroke="#000000" points="105.2389,-41.0693 96.8418,-34.6087 99.3772,-44.8957 105.2389,-41.0693"/>
</g>
<!-- bvb&#45;&gt;ntq -->
<g id="edge33" class="edge">
<title>bvb&#45;&gt;ntq</title>
<path fill="none" stroke="#000000" d="M423.8688,-76.4574C438.2406,-65.565 458.6381,-50.1059 474.8476,-37.8207"/>
<polygon fill="#000000" stroke="#000000" points="477.0327,-40.5564 482.8884,-31.7267 472.8046,-34.9776 477.0327,-40.5564"/>
</g>
<!-- rsh -->
<g id="node12" class="node">
<title>rsh</title>
<ellipse fill="none" stroke="#000000" cx="104" cy="-450" rx="27" ry="18"/>
<text text-anchor="middle" x="104" y="-445.8" font-family="Times,serif" font-size="14.00" fill="#000000">rsh</text>
</g>
<!-- rsh&#45;&gt;frs -->
<g id="edge1" class="edge">
<title>rsh&#45;&gt;frs</title>
<path fill="none" stroke="#000000" d="M100.2526,-432.0931C98.2534,-421.6241 96.0034,-408.1241 95,-396 91.0969,-348.8396 100.3855,-294.2193 107.3067,-261.9738"/>
<polygon fill="#000000" stroke="#000000" points="110.7839,-262.4608 109.5407,-251.9392 103.9512,-260.9397 110.7839,-262.4608"/>
</g>
<!-- rsh&#45;&gt;pzl -->
<g id="edge2" class="edge">
<title>rsh&#45;&gt;pzl</title>
<path fill="none" stroke="#000000" d="M121.5616,-436.3254C134.6153,-425.8398 152.5836,-410.7147 167,-396 187.5015,-375.0743 208.489,-349.0222 222.8517,-330.3404"/>
<polygon fill="#000000" stroke="#000000" points="225.6851,-332.3967 228.9591,-322.3204 220.116,-328.1557 225.6851,-332.3967"/>
</g>
<!-- rsh&#45;&gt;rzs -->
<g id="edge4" class="edge">
<title>rsh&#45;&gt;rzs</title>
<path fill="none" stroke="#000000" d="M85.4069,-436.8239C55.4928,-413.9227 0,-363.6677 0,-306 0,-306 0,-306 0,-162 0,-112.9696 37.2044,-66.1411 62.6722,-39.8289"/>
<polygon fill="#000000" stroke="#000000" points="65.2431,-42.2075 69.8241,-32.6543 60.2854,-37.2657 65.2431,-42.2075"/>
</g>
<!-- lsr -->
<g id="node13" class="node">
<title>lsr</title>
<ellipse fill="none" stroke="#000000" cx="131" cy="-378" rx="27" ry="18"/>
<text text-anchor="middle" x="131" y="-373.8" font-family="Times,serif" font-size="14.00" fill="#000000">lsr</text>
</g>
<!-- rsh&#45;&gt;lsr -->
<g id="edge3" class="edge">
<title>rsh&#45;&gt;lsr</title>
<path fill="none" stroke="#000000" d="M110.6742,-432.2022C113.7476,-424.0064 117.4616,-414.1024 120.8695,-405.0145"/>
<polygon fill="#000000" stroke="#000000" points="124.1685,-406.1853 124.4026,-395.593 117.6142,-403.7274 124.1685,-406.1853"/>
</g>
<!-- lsr&#45;&gt;frs -->
<g id="edge8" class="edge">
<title>lsr&#45;&gt;frs</title>
<path fill="none" stroke="#000000" d="M128.8813,-360.0535C125.9927,-335.5852 120.787,-291.4896 117.3622,-262.4799"/>
<polygon fill="#000000" stroke="#000000" points="120.7938,-261.6934 116.1454,-252.1727 113.842,-262.5141 120.7938,-261.6934"/>
</g>
<!-- lsr&#45;&gt;pzl -->
<g id="edge5" class="edge">
<title>lsr&#45;&gt;pzl</title>
<path fill="none" stroke="#000000" d="M150.4126,-365.2936C167.742,-353.9507 193.3318,-337.201 212.8972,-324.3946"/>
<polygon fill="#000000" stroke="#000000" points="214.9613,-327.2267 221.4115,-318.8216 211.1276,-321.3698 214.9613,-327.2267"/>
</g>
<!-- lsr&#45;&gt;rzs -->
<g id="edge7" class="edge">
<title>lsr&#45;&gt;rzs</title>
<path fill="none" stroke="#000000" d="M113.9424,-364.0044C87.0941,-340.2886 38,-289.3545 38,-234 38,-234 38,-234 38,-162 38,-119.0972 57.4131,-72.5236 71.5476,-44.2998"/>
<polygon fill="#000000" stroke="#000000" points="74.8102,-45.6095 76.2865,-35.118 68.5899,-42.399 74.8102,-45.6095"/>
</g>
<!-- lhk -->
<g id="node15" class="node">
<title>lhk</title>
<ellipse fill="none" stroke="#000000" cx="169" cy="-306" rx="27" ry="18"/>
<text text-anchor="middle" x="169" y="-301.8" font-family="Times,serif" font-size="14.00" fill="#000000">lhk</text>
</g>
<!-- lsr&#45;&gt;lhk -->
<g id="edge6" class="edge">
<title>lsr&#45;&gt;lhk</title>
<path fill="none" stroke="#000000" d="M140.0055,-360.937C144.4828,-352.4537 149.9952,-342.0092 155.007,-332.513"/>
<polygon fill="#000000" stroke="#000000" points="158.2229,-333.9182 159.7952,-323.4407 152.0322,-330.6509 158.2229,-333.9182"/>
</g>
<!-- hfx -->
<g id="node14" class="node">
<title>hfx</title>
<ellipse fill="none" stroke="#000000" cx="383" cy="-522" rx="27" ry="18"/>
<text text-anchor="middle" x="383" y="-517.8" font-family="Times,serif" font-size="14.00" fill="#000000">hfx</text>
</g>
<!-- hfx&#45;&gt;xhk -->
<g id="edge9" class="edge">
<title>hfx&#45;&gt;xhk</title>
<path fill="none" stroke="#000000" d="M383,-503.8314C383,-496.131 383,-486.9743 383,-478.4166"/>
<polygon fill="#000000" stroke="#000000" points="386.5001,-478.4132 383,-468.4133 379.5001,-478.4133 386.5001,-478.4132"/>
</g>
<!-- hfx&#45;&gt;rhn -->
<g id="edge10" class="edge">
<title>hfx&#45;&gt;rhn</title>
<path fill="none" stroke="#000000" d="M370.6274,-505.5766C363.1556,-495.1726 353.7967,-481.2291 347,-468 336.615,-447.7868 327.6651,-423.6379 321.5582,-405.446"/>
<polygon fill="#000000" stroke="#000000" points="324.8234,-404.1706 318.3843,-395.757 318.1712,-406.3497 324.8234,-404.1706"/>
</g>
<!-- hfx&#45;&gt;pzl -->
<g id="edge12" class="edge">
<title>hfx&#45;&gt;pzl</title>
<path fill="none" stroke="#000000" d="M366.4761,-507.6541C354.8563,-497.1975 339.2574,-482.3974 327,-468 301.7447,-438.3353 295.4639,-430.3061 277,-396 266.0984,-375.7447 256.5752,-351.4616 250.0663,-333.2264"/>
<polygon fill="#000000" stroke="#000000" points="253.37,-332.0705 246.7707,-323.7819 246.7608,-334.3768 253.37,-332.0705"/>
</g>
<!-- hfx&#45;&gt;bvb -->
<g id="edge11" class="edge">
<title>hfx&#45;&gt;bvb</title>
<path fill="none" stroke="#000000" d="M395.7976,-505.7829C403.4293,-495.4566 412.807,-481.5222 419,-468 436.2864,-430.2556 444,-419.5145 444,-378 444,-378 444,-378 444,-234 444,-191.9055 428.6313,-145.1122 417.4415,-116.6212"/>
<polygon fill="#000000" stroke="#000000" points="420.6838,-115.3029 413.6899,-107.3446 414.1944,-117.9274 420.6838,-115.3029"/>
</g>
<!-- hfx&#45;&gt;ntq -->
<g id="edge13" class="edge">
<title>hfx&#45;&gt;ntq</title>
<path fill="none" stroke="#000000" d="M407.7021,-514.562C455.9409,-498.3369 558,-454.9203 558,-378 558,-378 558,-378 558,-162 558,-117.7935 534.4889,-70.9731 517.6664,-43.1305"/>
<polygon fill="#000000" stroke="#000000" points="520.5172,-41.0871 512.2614,-34.4469 514.5743,-44.7862 520.5172,-41.0871"/>
</g>
<!-- lhk&#45;&gt;frs -->
<g id="edge16" class="edge">
<title>lhk&#45;&gt;frs</title>
<path fill="none" stroke="#000000" d="M156.5196,-289.6621C149.4876,-280.4564 140.5653,-268.7764 132.7117,-258.4953"/>
<polygon fill="#000000" stroke="#000000" points="135.2828,-256.0953 126.431,-250.2733 129.72,-260.3446 135.2828,-256.0953"/>
</g>
<!-- lhk&#45;&gt;nvd -->
<g id="edge15" class="edge">
<title>lhk&#45;&gt;nvd</title>
<path fill="none" stroke="#000000" d="M181.4804,-289.6621C188.5124,-280.4564 197.4347,-268.7764 205.2883,-258.4953"/>
<polygon fill="#000000" stroke="#000000" points="208.28,-260.3446 211.569,-250.2733 202.7172,-256.0953 208.28,-260.3446"/>
</g>
<!-- lhk&#45;&gt;cmg -->
<g id="edge14" class="edge">
<title>lhk&#45;&gt;cmg</title>
<path fill="none" stroke="#000000" d="M172.0185,-287.8789C175.2568,-269.5659 180.9049,-240.5462 188,-216 190.554,-207.1642 193.8553,-197.705 197.037,-189.2116"/>
<polygon fill="#000000" stroke="#000000" points="200.3414,-190.3699 200.665,-179.78 193.8081,-187.8567 200.3414,-190.3699"/>
</g>
</g>
</svg>
